<?xml version="1.0" standalone="no"?>
<!DOCTYPE svg PUBLIC "-//W3C//DTD SVG 20010904//EN"
 "http://www.w3.org/TR/2001/REC-SVG-20010904/DTD/svg10.dtd">
<svg version="1.0" xmlns="http://www.w3.org/2000/svg"
 width="1000.000000pt" height="154.000000pt" viewBox="0 0 1000.000000 154.000000"
 preserveAspectRatio="xMidYMid meet">
<metadata>
Created by potrace 1.16, written by Peter Selinger 2001-2019
</metadata>
<g transform="translate(0.000000,154.000000) scale(0.100000,-0.100000)"
fill="#000000" stroke="none">
<path d="M363 1521 c-83 -24 -165 -75 -225 -140 -66 -72 -104 -149 -125 -251
-3 -14 -5 -176 -6 -360 0 -356 4 -400 49 -493 59 -124 186 -232 309 -264 17
-4 253 -9 526 -10 466 -3 499 -2 552 16 30 11 66 25 79 32 12 7 26 12 31 11 4
-1 7 1 7 6 0 4 17 18 37 31 69 43 184 214 171 253 -3 9 -163 12 -659 13 -638
0 -655 0 -681 20 -53 40 -55 53 -54 391 2 340 2 341 63 381 25 17 73 18 678
18 l650 1 -3 24 c-5 49 -56 134 -116 195 -68 69 -159 118 -247 135 -32 6 -241
10 -514 9 -406 -1 -467 -3 -522 -18z"/>
<path d="M2281 1524 c-113 -31 -214 -102 -282 -200 -32 -46 -73 -143 -61 -145
4 -1 300 -2 658 -3 601 -1 652 -2 677 -19 56 -37 58 -50 58 -388 -1 -335 -2
-345 -54 -383 -28 -21 -36 -21 -665 -23 -350 0 -647 -2 -659 -2 l-23 -1 20
-52 c53 -140 182 -255 328 -293 87 -23 986 -22 1063 1 160 47 281 164 335 324
17 50 19 89 19 425 0 360 -1 372 -23 441 -45 137 -166 261 -302 309 -51 18
-88 20 -545 22 -406 2 -499 0 -544 -13z"/>
<path d="M7130 1323 c-14 -3 -15 -16 -11 -110 1 -16 140 -18 142 -3 0 6 1 30
1 55 0 25 -1 49 -1 53 -1 8 -100 11 -131 5z"/>
<path d="M3925 1311 c3 -7 0 -8 -9 -5 -13 5 -16 -1 -17 -27 0 -19 -2 -52 -4
-74 -1 -22 -5 -133 -9 -247 -8 -235 -13 -222 82 -217 53 3 81 17 60 30 -8 6
-9 9 -2 9 8 0 13 36 14 113 3 158 4 185 11 191 3 3 6 0 6 -6 2 -25 95 -313
106 -326 6 -8 28 -12 54 -11 l43 3 30 95 c16 53 39 131 51 173 13 43 24 76 26
75 1 -2 5 -40 8 -85 3 -45 7 -119 10 -163 3 -45 8 -85 11 -90 6 -10 114 -12
138 -3 19 7 21 40 4 47 -7 3 -8 6 -3 6 14 1 6 204 -8 213 -9 6 -9 8 -1 8 7 0
10 13 9 33 -2 17 -5 78 -6 134 -2 57 -6 109 -11 115 -5 9 -38 14 -99 15 -90 2
-129 -7 -129 -29 0 -25 -75 -247 -81 -240 -3 4 -26 63 -50 131 -32 90 -49 125
-64 131 -33 12 -178 13 -170 1z"/>
<path d="M5089 1313 c-1 -5 -2 -132 -3 -283 -2 -184 1 -277 8 -282 6 -4 79 -8
163 -8 l151 0 7 40 c4 22 4 53 0 69 -6 30 -6 30 -88 33 l-82 3 -3 43 -3 42 59
0 c51 0 60 3 65 20 3 11 0 20 -6 20 -8 0 -9 3 -2 8 6 4 10 14 9 22 0 8 -2 23
-2 33 -2 14 -12 17 -62 17 l-60 0 0 45 0 46 80 -2 c45 -1 83 1 87 5 8 8 7 112
-2 125 -7 13 -314 16 -316 4z"/>
<path d="M5497 1313 c-4 -3 -7 -134 -7 -290 l0 -283 75 0 75 0 0 290 0 290
-68 0 c-38 0 -72 -3 -75 -7z"/>
<path d="M8130 1030 l0 -290 74 0 74 0 -2 288 -1 287 -72 3 -73 3 0 -291z"/>
<path d="M8373 1309 c-18 -18 -19 -539 -1 -557 18 -18 214 -16 270 4 56 19 99
56 125 109 28 57 34 86 34 179 0 131 -36 201 -126 249 -33 17 -63 21 -165 25
-93 3 -128 0 -137 -9z m235 -175 c18 -21 22 -37 22 -94 0 -38 -5 -81 -12 -97
-6 -15 -11 -31 -10 -34 1 -6 -25 -15 -70 -24 -20 -4 -20 -8 -20 150 0 58 1
112 1 121 1 23 60 9 89 -22z"/>
<path d="M6518 1198 c-3 -39 -6 -43 -31 -46 -27 -3 -28 -5 -25 -55 3 -48 5
-52 31 -55 l27 -3 0 -150 0 -149 30 -1 c39 -2 75 -2 103 0 18 1 19 3 7 11 -8
5 -10 10 -4 10 13 0 13 62 -1 72 -7 5 -6 8 1 8 5 0 10 11 10 25 0 14 -5 25
-10 25 -8 0 -8 3 -1 8 6 4 11 30 11 57 0 28 -5 53 -11 57 -6 5 -5 8 3 8 7 0
10 5 7 10 -4 6 8 10 29 10 39 0 51 20 44 76 -3 26 -8 30 -43 34 -39 5 -40 6
-43 48 l-3 42 -64 0 -64 0 -3 -42z"/>
<path d="M9347 1234 c-4 -4 -7 -24 -7 -45 0 -34 -3 -38 -27 -41 -25 -3 -28 -7
-27 -40 2 -67 3 -68 29 -68 l25 0 0 -150 0 -150 28 -1 c39 -2 84 -2 105 0 15
1 17 15 17 151 l0 150 34 0 c38 0 44 14 37 78 -3 30 -6 32 -42 32 -37 0 -38 0
-41 43 l-3 42 -60 3 c-34 2 -64 0 -68 -4z"/>
<path d="M4613 1153 c-8 -3 -6 -17 7 -51 28 -72 96 -253 110 -294 12 -32 11
-42 -5 -85 -11 -26 -20 -50 -21 -53 0 -3 -8 -21 -17 -40 l-15 -35 75 -3 c42
-2 79 1 83 5 4 4 17 35 28 68 25 73 135 384 155 442 18 49 17 50 -72 49 l-65
-1 -26 -93 c-15 -51 -30 -95 -33 -98 -3 -3 -18 34 -33 82 -15 49 -31 93 -36
99 -9 10 -113 16 -135 8z"/>
<path d="M5845 1151 c3 -6 0 -9 -7 -6 -23 9 -75 -32 -103 -79 -30 -51 -39
-145 -21 -206 15 -50 74 -104 129 -119 49 -14 118 -9 166 12 36 16 40 25 30
60 -12 43 -23 51 -49 37 -30 -16 -105 -17 -124 -1 -28 23 -12 36 45 38 61 1
113 18 104 33 -3 5 0 7 8 4 19 -7 40 44 39 98 -1 79 -65 133 -162 137 -41 1
-60 -1 -55 -8z m78 -132 c17 -28 1 -49 -38 -49 -29 0 -35 4 -35 20 0 45 51 65
73 29z"/>
<path d="M6215 1141 c-152 -78 -136 -349 24 -402 35 -12 121 -5 153 12 19 10
24 52 12 97 -6 20 -11 22 -53 16 -65 -8 -94 15 -94 77 0 84 42 114 92 67 18
-16 28 -19 40 -11 18 11 43 90 36 113 -8 26 -46 42 -109 47 -48 3 -70 0 -101
-16z"/>
<path d="M6776 1129 c-19 -44 -7 -103 22 -107 22 -3 22 -6 21 -138 -1 -74 1
-137 3 -140 8 -7 103 -11 123 -4 15 5 17 19 16 116 0 60 2 122 5 137 5 26 10
28 41 25 33 -3 37 0 48 32 19 58 14 93 -16 104 -37 13 -74 1 -109 -36 -17 -17
-30 -26 -30 -19 0 24 -49 61 -80 61 -25 0 -33 -6 -44 -31z"/>
<path d="M7130 1152 c-13 -2 -15 -33 -14 -205 l0 -202 72 -3 c40 -2 72 1 73 5
5 46 2 388 -3 396 -6 10 -92 16 -128 9z"/>
<path d="M7435 1140 c-152 -76 -136 -348 24 -401 35 -12 121 -5 153 12 19 10
24 52 12 97 -6 20 -11 22 -53 16 -65 -8 -94 15 -94 77 0 83 40 114 89 68 37
-35 67 -8 80 73 12 67 -119 104 -211 58z"/>
<path d="M7763 1147 c-27 -8 -33 -15 -33 -39 0 -50 15 -67 52 -59 62 14 93 8
96 -16 3 -20 -1 -23 -35 -24 -76 -1 -134 -24 -153 -58 -27 -52 -15 -131 26
-177 44 -48 136 -55 194 -14 25 18 26 17 53 -6 33 -28 68 -31 89 -6 38 42 29
135 -12 127 -19 -4 -20 1 -20 78 0 100 -12 146 -46 177 -22 21 -36 25 -102 26
-42 1 -92 -3 -109 -9z m117 -250 c0 -18 -5 -38 -11 -44 -19 -19 -58 4 -59 34
0 18 29 43 51 43 15 0 19 -7 19 -33z"/>
<path d="M8932 1145 c-19 -9 -32 -21 -32 -32 0 -26 25 -68 38 -66 58 12 92 11
107 -4 22 -22 10 -30 -55 -36 -70 -6 -102 -21 -124 -58 -37 -63 -14 -151 53
-196 41 -28 120 -25 162 6 17 12 30 17 34 11 12 -19 67 -42 89 -36 26 6 46 44
46 84 0 34 -12 53 -36 56 -17 3 -20 14 -24 107 -6 110 -15 136 -59 162 -33 19
-155 20 -199 2z m123 -252 c-1 -35 -3 -38 -30 -38 -26 0 -30 4 -33 29 -4 31
10 46 44 46 17 0 20 -6 19 -37z"/>
<path d="M9672 1145 c-21 -9 -32 -21 -32 -34 0 -30 21 -70 34 -66 27 9 86 14
101 9 8 -3 15 -15 15 -25 0 -18 -10 -21 -85 -19 -12 0 -77 -31 -89 -43 -31
-31 -37 -106 -12 -159 34 -72 150 -98 216 -50 27 20 28 20 45 2 19 -21 59 -33
84 -25 22 7 41 46 41 85 0 30 -25 64 -40 55 -15 -9 -19 9 -21 100 -3 148 -33
183 -154 183 -39 0 -85 -6 -103 -13z m119 -225 c6 -58 3 -65 -25 -65 -36 0
-54 36 -30 60 17 17 53 20 55 5z"/>
<path d="M1041 962 c-61 -9 -130 -75 -148 -142 -25 -93 19 -183 111 -228 37
-18 79 -19 848 -19 l810 0 50 25 c61 30 96 81 105 149 10 85 -30 157 -107 198
-33 18 -76 19 -840 20 -443 0 -816 -2 -829 -3z"/>
<path d="M6411 388 c0 -13 6 -54 12 -93 11 -63 15 -70 37 -73 21 -2 28 4 45
45 11 26 19 54 19 61 -1 6 2 12 6 12 9 0 20 27 19 44 0 5 5 13 13 17 10 6 8 9
-7 9 -15 0 -25 -13 -39 -48 -11 -26 -26 -62 -33 -81 -8 -18 -16 -31 -18 -29
-3 2 -10 39 -16 81 -8 53 -16 77 -25 77 -8 0 -14 -10 -13 -22z"/>
<path d="M6608 358 c-51 -18 -61 -115 -15 -134 58 -25 108 13 110 82 1 51 -38
73 -95 52z m60 -47 c2 -12 1 -34 -2 -47 -8 -30 -44 -32 -69 -4 -9 11 -13 20
-8 20 5 0 11 14 15 31 5 26 10 30 33 27 21 -2 29 -9 31 -27z"/>
<path d="M6770 357 c-38 -19 -38 -53 -1 -75 43 -24 41 -46 -4 -39 -26 4 -35 2
-35 -9 0 -20 63 -22 88 -2 13 11 17 58 5 58 -5 0 -19 9 -32 19 -30 23 -20 44
14 31 17 -6 25 -5 29 5 2 7 -2 16 -10 19 -21 8 -25 8 -54 -7z"/>
<path d="M6919 331 c0 -20 -2 -55 -5 -77 l-6 -42 34 5 c18 2 41 5 51 6 26 2
47 30 53 68 8 51 -12 71 -74 74 l-52 2 -1 -36z m89 -8 c20 -38 -5 -83 -46 -83
-23 0 -24 2 -18 38 3 20 6 43 6 50 0 19 48 14 58 -5z"/>
<path d="M7125 360 c-31 -12 -47 -35 -50 -74 -5 -54 15 -71 83 -67 44 2 76
101 44 133 -13 13 -54 17 -77 8z m58 -49 c-10 -65 -13 -71 -38 -71 -32 0 -44
26 -33 68 8 29 12 32 42 30 29 -2 32 -5 29 -27z"/>
<path d="M7260 344 c0 -13 -1 -26 -2 -29 0 -2 -4 -25 -8 -49 -5 -32 -3 -47 6
-50 8 -3 14 11 19 45 4 27 10 49 13 49 4 0 15 -20 25 -45 13 -31 25 -45 38
-45 10 0 19 3 20 8 0 4 2 14 3 22 2 8 7 39 11 68 6 45 5 51 -9 46 -9 -4 -16
-18 -16 -34 0 -60 -11 -64 -39 -14 -29 53 -61 68 -61 28z"/>
<path d="M7434 294 c-7 -55 -7 -75 2 -78 8 -3 15 12 19 45 6 40 10 48 20 39 8
-7 19 -27 25 -46 8 -23 18 -34 31 -34 10 0 19 3 20 8 0 4 2 14 3 22 2 8 7 39
11 68 6 45 5 51 -9 46 -9 -4 -16 -18 -16 -34 0 -60 -11 -64 -39 -14 -40 72
-56 67 -67 -22z"/>
<path d="M7624 355 c-1 -5 -7 -38 -12 -72 l-9 -63 48 0 c26 0 51 5 54 10 4 6
-8 10 -29 10 -29 0 -36 4 -36 20 0 16 7 20 31 20 20 0 29 4 27 12 -3 7 -13 13
-24 13 -10 0 -20 8 -22 18 -3 14 4 17 32 17 23 0 36 5 36 13 0 15 -91 18 -96
2z"/>
<path d="M7755 336 c-2 -17 -7 -50 -9 -73 l-5 -41 49 -4 c57 -3 73 19 18 24
-41 4 -45 32 -5 36 15 2 27 9 27 16 0 8 -10 12 -25 11 -19 -3 -25 1 -25 15 0
14 9 20 38 22 53 4 46 22 -10 23 -46 1 -48 0 -53 -29z"/>
<path d="M7910 357 c-37 -19 -38 -51 -1 -73 44 -26 41 -48 -4 -41 -26 4 -35 2
-35 -9 0 -20 63 -22 88 -2 13 11 17 58 5 58 -5 0 -19 9 -33 20 -21 16 -22 21
-11 29 9 6 22 6 32 0 12 -6 19 -4 22 5 3 8 -1 17 -9 20 -21 8 -25 8 -54 -7z"/>
<path d="M8056 298 c-3 -38 -4 -73 -2 -76 7 -11 70 -6 74 6 2 6 -7 12 -20 14
-24 3 -27 19 -17 92 3 21 0 30 -12 31 -13 2 -18 -11 -23 -67z"/>
<path d="M8180 343 c0 -12 -1 -26 -2 -30 -1 -5 -5 -29 -8 -54 -5 -39 -4 -45
10 -42 9 3 17 10 17 16 0 7 3 39 7 73 6 51 5 61 -8 61 -10 0 -16 -9 -16 -24z"/>
<path d="M8265 356 c-2 -6 -6 -39 -10 -73 -4 -49 -3 -63 8 -63 8 0 14 14 15
37 4 57 13 60 39 10 26 -52 63 -66 63 -24 0 12 3 46 7 75 5 43 3 52 -9 47 -8
-3 -15 -22 -17 -48 -1 -23 -4 -43 -6 -45 -1 -2 -15 19 -30 46 -25 45 -52 63
-60 38z"/>
<path d="M8445 356 c-2 -6 -6 -39 -10 -73 -5 -53 -4 -63 10 -63 10 0 15 9 15
28 0 45 11 45 37 2 15 -25 29 -37 38 -34 12 5 11 13 -8 44 l-22 39 28 28 c31
34 34 42 10 38 -10 -1 -17 -7 -17 -11 1 -5 -12 -20 -28 -33 l-30 -24 5 35 c3
26 1 35 -10 35 -8 0 -16 -5 -18 -11z"/>
<path d="M8601 319 c10 -28 19 -61 19 -74 0 -30 25 -34 27 -4 1 11 16 42 32
68 34 53 37 62 19 59 -7 -2 -23 -20 -36 -40 -13 -21 -25 -38 -28 -38 -3 0 -3
3 -1 8 9 13 -18 65 -35 68 -15 2 -15 -3 3 -47z"/>
<path d="M8793 344 c-33 -33 -30 -103 5 -120 27 -13 72 -7 72 11 0 8 -8 11
-20 8 -28 -7 -50 14 -50 47 0 34 22 54 55 48 14 -3 25 -1 25 3 0 5 0 12 0 16
0 4 -14 8 -32 9 -21 1 -39 -6 -55 -22z"/>
<path d="M8920 341 c0 -16 -3 -49 -6 -75 -6 -38 -4 -46 10 -46 11 0 16 9 16
30 0 28 3 30 35 30 32 0 35 -2 35 -30 0 -20 5 -30 15 -30 9 0 15 9 15 23 0 12
3 45 6 73 5 43 4 51 -10 51 -11 0 -16 -9 -16 -32 0 -30 -2 -32 -36 -32 -33 0
-35 2 -32 30 2 22 -1 31 -14 33 -14 2 -18 -5 -18 -25z"/>
<path d="M9105 360 c-1 -3 -6 -36 -10 -75 l-6 -70 45 0 c27 0 48 5 51 13 3 8
-7 12 -30 12 -28 0 -35 4 -35 20 0 16 7 20 31 20 20 0 29 4 27 12 -3 7 -13 13
-24 13 -10 0 -20 8 -22 18 -3 14 4 17 32 17 23 0 36 5 36 13 0 8 -15 13 -46
13 -25 0 -47 -3 -49 -6z"/>
<path d="M9230 353 c0 -6 15 -13 34 -15 l35 -3 -45 -50 c-24 -27 -44 -53 -44
-57 0 -5 27 -8 60 -8 33 0 60 4 60 10 0 6 -16 10 -35 10 -37 0 -44 10 -20 30
8 7 12 17 8 23 -3 5 -1 7 5 3 11 -7 52 39 52 58 0 7 -21 11 -55 11 -36 0 -55
-4 -55 -12z"/>
<path d="M9410 362 c0 -3 5 -34 11 -69 9 -51 16 -66 32 -72 18 -7 24 -2 40 33
11 23 20 47 20 54 0 6 4 12 9 12 5 0 6 5 3 10 -3 6 -1 10 4 10 6 0 11 6 11 13
0 34 -29 8 -49 -45 -12 -32 -26 -56 -31 -53 -4 3 -11 29 -14 58 -5 37 -11 54
-22 54 -7 0 -14 -3 -14 -5z"/>
<path d="M9573 343 c-26 -25 -31 -79 -10 -107 20 -27 83 -24 107 5 29 32 27
94 -3 113 -30 20 -67 16 -94 -11z m85 -35 c4 -38 -14 -68 -42 -68 -25 0 -36
17 -36 54 0 30 20 47 50 44 19 -2 26 -10 28 -30z"/>
<path d="M9730 341 c-1 -14 -3 -42 -6 -62 -6 -43 12 -62 58 -61 38 1 57 19 63
58 3 16 7 43 10 61 5 26 3 31 -12 29 -14 -2 -19 -15 -23 -56 -5 -56 -24 -78
-54 -67 -14 6 -16 16 -10 65 5 50 4 59 -10 59 -10 0 -16 -9 -16 -26z"/>
<path d="M9920 357 c-37 -19 -38 -51 -1 -73 44 -26 41 -48 -4 -41 -26 4 -35 2
-35 -9 0 -14 17 -18 55 -14 53 5 61 56 14 84 -24 14 -28 21 -18 32 8 10 16 11
29 4 23 -12 40 8 19 21 -19 12 -29 11 -59 -4z"/>
</g>
</svg>
